<svg width="100" height="100" viewBox="0 0 100 100" fill="none" xmlns="http://www.w3.org/2000/svg">
<rect width="100" height="100" rx="6" fill="#F5F5F5"/>
<path d="M49.0521 50.9477H44.9453C44.6792 50.9477 44.4547 50.8562 44.2718 50.6733C44.0888 50.4903 43.9973 50.2658 43.9973 49.9998C43.9973 49.7338 44.0888 49.5093 44.2718 49.3263C44.4547 49.1434 44.6792 49.0519 44.9453 49.0519H49.0521V44.945C49.0521 44.679 49.1436 44.4545 49.3266 44.2715C49.5096 44.0886 49.734 43.9971 50 43.9971C50.266 43.9971 50.4905 44.0886 50.6735 44.2715C50.8565 44.4545 50.948 44.679 50.948 44.945V49.0519H55.0548C55.3209 49.0519 55.5453 49.1434 55.7283 49.3263C55.9113 49.5093 56.0028 49.7338 56.0028 49.9998C56.0028 50.2658 55.9113 50.4903 55.7283 50.6733C55.5453 50.8562 55.3209 50.9477 55.0548 50.9477H50.948V55.0546C50.948 55.3206 50.8565 55.5451 50.6735 55.7281C50.4905 55.911 50.266 56.0025 50 56.0025C49.734 56.0025 49.5096 55.911 49.3266 55.7281C49.1436 55.5451 49.0521 55.3206 49.0521 55.0546V50.9477Z" fill="#5534DA"/>
</svg>
